<svg width="32" height="25" viewBox="0 0 32 25" fill="none" xmlns="http://www.w3.org/2000/svg">
<path d="M28.4091 0H3.40909C1.527 0 0 1.527 0 3.40909V21.5909C0 23.473 1.527 25 3.40909 25H28.4091C30.2912 25 31.8182 23.473 31.8182 21.5909V3.40909C31.8182 1.527 30.2912 0 28.4091 0ZM29.5455 3.79273V20.6818L22.477 10.0797L29.5455 3.79273ZM13.8636 14.0909C14.446 14.527 15.1548 14.7628 15.8835 14.7614C16.6577 14.7571 17.4119 14.5014 18.0284 14.0312L20.7628 11.6008L28.1815 22.7275H3.63609L11.0549 11.5984L13.8636 14.0909ZM27.8412 2.27273L16.5909 12.2727C16.2145 12.5597 15.7003 12.5838 15.2983 12.3324L3.98436 2.27269L27.8412 2.27273ZM9.34273 10.0739L2.27333 20.6818V3.79273L9.34273 10.0739Z" fill="white"/>
</svg>
