<svg width="27" height="27" viewBox="0 0 27 27" fill="none" xmlns="http://www.w3.org/2000/svg">
<g clip-path="url(#clip0_1128_1773)">
<path d="M13.8182 2.43105C17.2917 2.43105 17.703 2.44687 19.069 2.51016C20.3386 2.56816 21.0241 2.78965 21.4811 2.97422C22.0854 3.2168 22.5221 3.51211 22.9741 3.98145C23.4311 4.45605 23.7104 4.9043 23.944 5.53184C24.1218 6.00645 24.335 6.72363 24.3909 8.03672C24.4518 9.46055 24.4671 9.8877 24.4671 13.4895C24.4671 17.0965 24.4518 17.5236 24.3909 18.9422C24.335 20.2605 24.1218 20.9725 23.944 21.4471C23.7104 22.0746 23.4261 22.5281 22.9741 22.9975C22.5171 23.4721 22.0854 23.7621 21.4811 24.0047C21.0241 24.1893 20.3335 24.4107 19.069 24.4688C17.6979 24.532 17.2866 24.5479 13.8182 24.5479C10.3448 24.5479 9.93347 24.532 8.56746 24.4688C7.29793 24.4107 6.61238 24.1893 6.15535 24.0047C5.55105 23.7621 5.11433 23.4668 4.66238 22.9975C4.20535 22.5229 3.92605 22.0746 3.69246 21.4471C3.51472 20.9725 3.30144 20.2553 3.24558 18.9422C3.18464 17.5184 3.16941 17.0912 3.16941 13.4895C3.16941 9.88242 3.18464 9.45527 3.24558 8.03672C3.30144 6.71836 3.51472 6.00645 3.69246 5.53184C3.92605 4.9043 4.21043 4.45078 4.66238 3.98145C5.11941 3.50684 5.55105 3.2168 6.15535 2.97422C6.61238 2.78965 7.303 2.56816 8.56746 2.51016C9.93347 2.44687 10.3448 2.43105 13.8182 2.43105ZM13.8182 0C10.2889 0 9.84714 0.0158203 8.46082 0.0791016C7.07957 0.142383 6.12996 0.374414 5.3073 0.706641C4.4491 1.05469 3.72293 1.51348 3.00183 2.26758C2.27566 3.01641 1.83386 3.77051 1.49871 4.65645C1.17878 5.51602 0.955347 6.49687 0.894409 7.93125C0.833472 9.37617 0.818237 9.83496 0.818237 13.5C0.818237 17.165 0.833472 17.6238 0.894409 19.0635C0.955347 20.4979 1.17878 21.484 1.49871 22.3383C1.83386 23.2295 2.27566 23.9836 3.00183 24.7324C3.72293 25.4812 4.4491 25.9453 5.30222 26.2881C6.12996 26.6203 7.07449 26.8523 8.45574 26.9156C9.84207 26.9789 10.2839 26.9947 13.8132 26.9947C17.3425 26.9947 17.7843 26.9789 19.1706 26.9156C20.5518 26.8523 21.5014 26.6203 22.3241 26.2881C23.1772 25.9453 23.9034 25.4812 24.6245 24.7324C25.3456 23.9836 25.7925 23.2295 26.1225 22.3436C26.4425 21.484 26.6659 20.5031 26.7268 19.0688C26.7878 17.6291 26.803 17.1703 26.803 13.5053C26.803 9.84024 26.7878 9.38145 26.7268 7.9418C26.6659 6.50742 26.4425 5.52129 26.1225 4.66699C25.8026 3.77051 25.3608 3.01641 24.6346 2.26758C23.9136 1.51875 23.1874 1.05469 22.3343 0.711914C21.5065 0.379687 20.562 0.147656 19.1807 0.084375C17.7893 0.0158203 17.3475 0 13.8182 0Z" fill="white"/>
<path d="M13.8182 6.56543C10.1315 6.56543 7.1405 9.67148 7.1405 13.5C7.1405 17.3285 10.1315 20.4346 13.8182 20.4346C17.505 20.4346 20.496 17.3285 20.496 13.5C20.496 9.67148 17.505 6.56543 13.8182 6.56543ZM13.8182 17.9982C11.4264 17.9982 9.4866 15.9838 9.4866 13.5C9.4866 11.0162 11.4264 9.00176 13.8182 9.00176C16.21 9.00176 18.1499 11.0162 18.1499 13.5C18.1499 15.9838 16.21 17.9982 13.8182 17.9982Z" fill="white"/>
<path d="M22.319 6.29116C22.319 7.18764 21.6182 7.91011 20.76 7.91011C19.8968 7.91011 19.201 7.18237 19.201 6.29116C19.201 5.39467 19.9018 4.67221 20.76 4.67221C21.6182 4.67221 22.319 5.39995 22.319 6.29116Z" fill="white"/>
</g>
<defs>
<clipPath id="clip0_1128_1773">
<rect width="26" height="27" fill="white" transform="translate(0.818237)"/>
</clipPath>
</defs>
</svg>
