<svg width="58" height="67" viewBox="0 0 58 67" fill="none" xmlns="http://www.w3.org/2000/svg">
<rect width="32.4025" height="32.4025" transform="matrix(0.866025 -0.5 -0.866025 -0.5 29.0615 66)" stroke="#08090A" stroke-linejoin="bevel"/>
<rect width="32.4025" height="32.4025" transform="matrix(0.866025 -0.5 0 -1 1 49.7988)" stroke="#08090A" stroke-linejoin="bevel"/>
<rect width="32.4025" height="32.4025" transform="matrix(0.866025 0.5 0 -1 29.0615 33.5975)" stroke="#08090A" stroke-linejoin="bevel"/>
<line y1="-0.5" x2="32.0927" y2="-0.5" transform="matrix(0.866025 0.5 0 -1 29.2412 33.3674)" stroke="#08090A"/>
<line y1="-0.5" x2="32.0927" y2="-0.5" transform="matrix(0.866025 0.5 0 -1 29.2412 29.3215)" stroke="#08090A"/>
<line y1="-0.5" x2="32.0927" y2="-0.5" transform="matrix(0.866025 0.5 0 -1 29.2412 25.2756)" stroke="#08090A"/>
<line y1="-0.5" x2="32.0927" y2="-0.5" transform="matrix(0.866025 0.5 0 -1 29.2412 21.2297)" stroke="#08090A"/>
<line y1="-0.5" x2="32.0927" y2="-0.5" transform="matrix(0.866025 0.5 0 -1 29.2412 17.1837)" stroke="#08090A"/>
<line y1="-0.5" x2="32.0927" y2="-0.5" transform="matrix(0.866025 0.5 0 -1 29.2412 13.1378)" stroke="#08090A"/>
<line y1="-0.5" x2="32.0927" y2="-0.5" transform="matrix(0.866025 0.5 0 -1 29.2412 5.04597)" stroke="#08090A"/>
<line y1="-0.5" x2="32.0927" y2="-0.5" transform="matrix(0.866025 0.5 0 -1 29.2412 1.00005)" stroke="#08090A"/>
<line y1="-0.5" x2="32.0927" y2="-0.5" transform="matrix(0.866025 0.5 0 -1 29.2412 9.09189)" stroke="#08090A"/>
</svg>
