<svg width="226" height="132" viewBox="0 0 226 132" fill="none" xmlns="http://www.w3.org/2000/svg">
<rect width="32.4025" height="32.4025" transform="matrix(0.866025 -0.5 -0.866025 -0.5 197.062 66)" stroke="#08090A" stroke-linejoin="bevel"/>
<rect width="32.4025" height="32.4025" transform="matrix(0.866025 -0.5 0 -1 169 49.7988)" stroke="#08090A" stroke-linejoin="bevel"/>
<rect width="32.4025" height="32.4025" transform="matrix(0.866025 0.5 0 -1 197.062 33.5975)" stroke="#08090A" stroke-linejoin="bevel"/>
<line y1="-0.5" x2="32.0927" y2="-0.5" transform="matrix(0.866025 0.5 0 -1 197.241 33.3674)" stroke="#08090A"/>
<line y1="-0.5" x2="32.0927" y2="-0.5" transform="matrix(0.866025 0.5 0 -1 197.241 29.3215)" stroke="#08090A"/>
<line y1="-0.5" x2="32.0927" y2="-0.5" transform="matrix(0.866025 0.5 0 -1 197.241 25.2756)" stroke="#08090A"/>
<line y1="-0.5" x2="32.0927" y2="-0.5" transform="matrix(0.866025 0.5 0 -1 197.241 21.2297)" stroke="#08090A"/>
<line y1="-0.5" x2="32.0927" y2="-0.5" transform="matrix(0.866025 0.5 0 -1 197.241 17.1837)" stroke="#08090A"/>
<line y1="-0.5" x2="32.0927" y2="-0.5" transform="matrix(0.866025 0.5 0 -1 197.241 13.1378)" stroke="#08090A"/>
<line y1="-0.5" x2="32.0927" y2="-0.5" transform="matrix(0.866025 0.5 0 -1 197.241 5.04597)" stroke="#08090A"/>
<line y1="-0.5" x2="32.0927" y2="-0.5" transform="matrix(0.866025 0.5 0 -1 197.241 1.00005)" stroke="#08090A"/>
<line y1="-0.5" x2="32.0927" y2="-0.5" transform="matrix(0.866025 0.5 0 -1 197.241 9.09189)" stroke="#08090A"/>
<rect width="32.4025" height="32.4025" transform="matrix(0.866025 0.5 -0.866025 0.5 29.0615 1)" stroke="#08090A" stroke-linejoin="bevel"/>
<rect width="32.4025" height="32.4025" transform="matrix(0.866025 0.5 0 1 1 17.2012)" stroke="#08090A" stroke-linejoin="bevel"/>
<rect width="32.4025" height="32.4025" transform="matrix(0.866025 -0.5 0 1 29.0615 33.4025)" stroke="#08090A" stroke-linejoin="bevel"/>
<line y1="-0.5" x2="32.0927" y2="-0.5" transform="matrix(0.866025 -0.5 0 1 29.2412 33.6326)" stroke="#08090A"/>
<line y1="-0.5" x2="32.0927" y2="-0.5" transform="matrix(0.866025 -0.5 0 1 29.2412 37.6785)" stroke="#08090A"/>
<line y1="-0.5" x2="32.0927" y2="-0.5" transform="matrix(0.866025 -0.5 0 1 29.2412 41.7244)" stroke="#08090A"/>
<line y1="-0.5" x2="32.0927" y2="-0.5" transform="matrix(0.866025 -0.5 0 1 29.2412 45.7703)" stroke="#08090A"/>
<line y1="-0.5" x2="32.0927" y2="-0.5" transform="matrix(0.866025 -0.5 0 1 29.2412 49.8163)" stroke="#08090A"/>
<line y1="-0.5" x2="32.0927" y2="-0.5" transform="matrix(0.866025 -0.5 0 1 29.2412 53.8622)" stroke="#08090A"/>
<line y1="-0.5" x2="32.0927" y2="-0.5" transform="matrix(0.866025 -0.5 0 1 29.2412 61.954)" stroke="#08090A"/>
<line y1="-0.5" x2="32.0927" y2="-0.5" transform="matrix(0.866025 -0.5 0 1 29.2412 66)" stroke="#08090A"/>
<line y1="-0.5" x2="32.0927" y2="-0.5" transform="matrix(0.866025 -0.5 0 1 29.2412 57.9081)" stroke="#08090A"/>
<rect width="32.4025" height="32.4025" transform="matrix(0.866025 0.5 -0.866025 0.5 197.062 66)" stroke="#08090A" stroke-linejoin="bevel"/>
<rect width="32.4025" height="32.4025" transform="matrix(0.866025 0.5 0 1 169 82.2012)" stroke="#08090A" stroke-linejoin="bevel"/>
<rect width="32.4025" height="32.4025" transform="matrix(0.866025 -0.5 0 1 197.062 98.4025)" stroke="#08090A" stroke-linejoin="bevel"/>
<line y1="-0.5" x2="32.0927" y2="-0.5" transform="matrix(0.866025 -0.5 0 1 197.241 98.6326)" stroke="#08090A"/>
<line y1="-0.5" x2="32.0927" y2="-0.5" transform="matrix(0.866025 -0.5 0 1 197.241 102.678)" stroke="#08090A"/>
<line y1="-0.5" x2="32.0927" y2="-0.5" transform="matrix(0.866025 -0.5 0 1 197.241 106.724)" stroke="#08090A"/>
<line y1="-0.5" x2="32.0927" y2="-0.5" transform="matrix(0.866025 -0.5 0 1 197.241 110.77)" stroke="#08090A"/>
<line y1="-0.5" x2="32.0927" y2="-0.5" transform="matrix(0.866025 -0.5 0 1 197.241 114.816)" stroke="#08090A"/>
<line y1="-0.5" x2="32.0927" y2="-0.5" transform="matrix(0.866025 -0.5 0 1 197.241 118.862)" stroke="#08090A"/>
<line y1="-0.5" x2="32.0927" y2="-0.5" transform="matrix(0.866025 -0.5 0 1 197.241 126.954)" stroke="#08090A"/>
<line y1="-0.5" x2="32.0927" y2="-0.5" transform="matrix(0.866025 -0.5 0 1 197.241 131)" stroke="#08090A"/>
<line y1="-0.5" x2="32.0927" y2="-0.5" transform="matrix(0.866025 -0.5 0 1 197.241 122.908)" stroke="#08090A"/>
<rect width="32.4025" height="32.4025" transform="matrix(0.866025 -0.5 -0.866025 -0.5 29.0615 131)" stroke="#08090A" stroke-linejoin="bevel"/>
<rect width="32.4025" height="32.4025" transform="matrix(0.866025 -0.5 0 -1 1 114.799)" stroke="#08090A" stroke-linejoin="bevel"/>
<rect width="32.4025" height="32.4025" transform="matrix(0.866025 0.5 0 -1 29.0615 98.5975)" stroke="#08090A" stroke-linejoin="bevel"/>
<line y1="-0.5" x2="32.0927" y2="-0.5" transform="matrix(0.866025 0.5 0 -1 29.2412 98.3674)" stroke="#08090A"/>
<line y1="-0.5" x2="32.0927" y2="-0.5" transform="matrix(0.866025 0.5 0 -1 29.2412 94.3215)" stroke="#08090A"/>
<line y1="-0.5" x2="32.0927" y2="-0.5" transform="matrix(0.866025 0.5 0 -1 29.2412 90.2756)" stroke="#08090A"/>
<line y1="-0.5" x2="32.0927" y2="-0.5" transform="matrix(0.866025 0.5 0 -1 29.2412 86.2297)" stroke="#08090A"/>
<line y1="-0.5" x2="32.0927" y2="-0.5" transform="matrix(0.866025 0.5 0 -1 29.2412 82.1837)" stroke="#08090A"/>
<line y1="-0.5" x2="32.0927" y2="-0.5" transform="matrix(0.866025 0.5 0 -1 29.2412 78.1378)" stroke="#08090A"/>
<line y1="-0.5" x2="32.0927" y2="-0.5" transform="matrix(0.866025 0.5 0 -1 29.2412 70.046)" stroke="#08090A"/>
<line y1="-0.5" x2="32.0927" y2="-0.5" transform="matrix(0.866025 0.5 0 -1 29.2412 66)" stroke="#08090A"/>
<line y1="-0.5" x2="32.0927" y2="-0.5" transform="matrix(0.866025 0.5 0 -1 29.2412 74.0919)" stroke="#08090A"/>
<rect width="32.4025" height="32.4025" transform="matrix(0.866025 -0.5 -0.866025 -0.5 85.0615 66)" stroke="#08090A" stroke-linejoin="bevel"/>
<rect width="32.4025" height="32.4025" transform="matrix(0.866025 -0.5 0 -1 57 49.7988)" stroke="#08090A" stroke-linejoin="bevel"/>
<rect width="32.4025" height="32.4025" transform="matrix(0.866025 0.5 0 -1 85.0615 33.5975)" stroke="#08090A" stroke-linejoin="bevel"/>
<line y1="-0.5" x2="32.0927" y2="-0.5" transform="matrix(0.866025 0.5 0 -1 85.2412 33.3674)" stroke="#08090A"/>
<line y1="-0.5" x2="32.0927" y2="-0.5" transform="matrix(0.866025 0.5 0 -1 85.2412 29.3215)" stroke="#08090A"/>
<line y1="-0.5" x2="32.0927" y2="-0.5" transform="matrix(0.866025 0.5 0 -1 85.2412 25.2756)" stroke="#08090A"/>
<line y1="-0.5" x2="32.0927" y2="-0.5" transform="matrix(0.866025 0.5 0 -1 85.2412 21.2297)" stroke="#08090A"/>
<line y1="-0.5" x2="32.0927" y2="-0.5" transform="matrix(0.866025 0.5 0 -1 85.2412 17.1837)" stroke="#08090A"/>
<line y1="-0.5" x2="32.0927" y2="-0.5" transform="matrix(0.866025 0.5 0 -1 85.2412 13.1378)" stroke="#08090A"/>
<line y1="-0.5" x2="32.0927" y2="-0.5" transform="matrix(0.866025 0.5 0 -1 85.2412 5.04597)" stroke="#08090A"/>
<line y1="-0.5" x2="32.0927" y2="-0.5" transform="matrix(0.866025 0.5 0 -1 85.2412 1.00005)" stroke="#08090A"/>
<line y1="-0.5" x2="32.0927" y2="-0.5" transform="matrix(0.866025 0.5 0 -1 85.2412 9.09189)" stroke="#08090A"/>
<rect width="32.4025" height="32.4025" transform="matrix(0.866025 0.5 -0.866025 0.5 85.0615 66)" stroke="#08090A" stroke-linejoin="bevel"/>
<rect width="32.4025" height="32.4025" transform="matrix(0.866025 0.5 0 1 57 82.2012)" stroke="#08090A" stroke-linejoin="bevel"/>
<rect width="32.4025" height="32.4025" transform="matrix(0.866025 -0.5 0 1 85.0615 98.4025)" stroke="#08090A" stroke-linejoin="bevel"/>
<line y1="-0.5" x2="32.0927" y2="-0.5" transform="matrix(0.866025 -0.5 0 1 85.2412 98.6326)" stroke="#08090A"/>
<line y1="-0.5" x2="32.0927" y2="-0.5" transform="matrix(0.866025 -0.5 0 1 85.2412 102.678)" stroke="#08090A"/>
<line y1="-0.5" x2="32.0927" y2="-0.5" transform="matrix(0.866025 -0.5 0 1 85.2412 106.724)" stroke="#08090A"/>
<line y1="-0.5" x2="32.0927" y2="-0.5" transform="matrix(0.866025 -0.5 0 1 85.2412 110.77)" stroke="#08090A"/>
<line y1="-0.5" x2="32.0927" y2="-0.5" transform="matrix(0.866025 -0.5 0 1 85.2412 114.816)" stroke="#08090A"/>
<line y1="-0.5" x2="32.0927" y2="-0.5" transform="matrix(0.866025 -0.5 0 1 85.2412 118.862)" stroke="#08090A"/>
<line y1="-0.5" x2="32.0927" y2="-0.5" transform="matrix(0.866025 -0.5 0 1 85.2412 126.954)" stroke="#08090A"/>
<line y1="-0.5" x2="32.0927" y2="-0.5" transform="matrix(0.866025 -0.5 0 1 85.2412 131)" stroke="#08090A"/>
<line y1="-0.5" x2="32.0927" y2="-0.5" transform="matrix(0.866025 -0.5 0 1 85.2412 122.908)" stroke="#08090A"/>
<rect width="32.4025" height="32.4025" transform="matrix(0.866025 0.5 -0.866025 0.5 141.062 1)" stroke="#08090A" stroke-linejoin="bevel"/>
<rect width="32.4025" height="32.4025" transform="matrix(0.866025 0.5 0 1 113 17.2012)" stroke="#08090A" stroke-linejoin="bevel"/>
<rect width="32.4025" height="32.4025" transform="matrix(0.866025 -0.5 0 1 141.062 33.4025)" stroke="#08090A" stroke-linejoin="bevel"/>
<line y1="-0.5" x2="32.0927" y2="-0.5" transform="matrix(0.866025 -0.5 0 1 141.241 33.6326)" stroke="#08090A"/>
<line y1="-0.5" x2="32.0927" y2="-0.5" transform="matrix(0.866025 -0.5 0 1 141.241 37.6785)" stroke="#08090A"/>
<line y1="-0.5" x2="32.0927" y2="-0.5" transform="matrix(0.866025 -0.5 0 1 141.241 41.7244)" stroke="#08090A"/>
<line y1="-0.5" x2="32.0927" y2="-0.5" transform="matrix(0.866025 -0.5 0 1 141.241 45.7703)" stroke="#08090A"/>
<line y1="-0.5" x2="32.0927" y2="-0.5" transform="matrix(0.866025 -0.5 0 1 141.241 49.8163)" stroke="#08090A"/>
<line y1="-0.5" x2="32.0927" y2="-0.5" transform="matrix(0.866025 -0.5 0 1 141.241 53.8622)" stroke="#08090A"/>
<line y1="-0.5" x2="32.0927" y2="-0.5" transform="matrix(0.866025 -0.5 0 1 141.241 61.954)" stroke="#08090A"/>
<line y1="-0.5" x2="32.0927" y2="-0.5" transform="matrix(0.866025 -0.5 0 1 141.241 66)" stroke="#08090A"/>
<line y1="-0.5" x2="32.0927" y2="-0.5" transform="matrix(0.866025 -0.5 0 1 141.241 57.9081)" stroke="#08090A"/>
<rect width="32.4025" height="32.4025" transform="matrix(-0.866025 0.5 0.866025 0.5 141.061 66)" stroke="#08090A" stroke-linejoin="bevel"/>
<rect width="32.4025" height="32.4025" transform="matrix(-0.866025 0.5 0 1 169.123 82.2012)" stroke="#08090A" stroke-linejoin="bevel"/>
<rect width="32.4025" height="32.4025" transform="matrix(-0.866025 -0.5 0 1 141.061 98.4025)" stroke="#08090A" stroke-linejoin="bevel"/>
<line y1="-0.5" x2="32.0927" y2="-0.5" transform="matrix(-0.866025 -0.5 0 1 140.881 98.6326)" stroke="#08090A"/>
<line y1="-0.5" x2="32.0927" y2="-0.5" transform="matrix(-0.866025 -0.5 0 1 140.881 102.678)" stroke="#08090A"/>
<line y1="-0.5" x2="32.0927" y2="-0.5" transform="matrix(-0.866025 -0.5 0 1 140.881 106.724)" stroke="#08090A"/>
<line y1="-0.5" x2="32.0927" y2="-0.5" transform="matrix(-0.866025 -0.5 0 1 140.881 110.77)" stroke="#08090A"/>
<line y1="-0.5" x2="32.0927" y2="-0.5" transform="matrix(-0.866025 -0.5 0 1 140.881 114.816)" stroke="#08090A"/>
<line y1="-0.5" x2="32.0927" y2="-0.5" transform="matrix(-0.866025 -0.5 0 1 140.881 118.862)" stroke="#08090A"/>
<line y1="-0.5" x2="32.0927" y2="-0.5" transform="matrix(-0.866025 -0.5 0 1 140.881 126.954)" stroke="#08090A"/>
<line y1="-0.5" x2="32.0927" y2="-0.5" transform="matrix(-0.866025 -0.5 0 1 140.881 131)" stroke="#08090A"/>
<line y1="-0.5" x2="32.0927" y2="-0.5" transform="matrix(-0.866025 -0.5 0 1 140.881 122.908)" stroke="#08090A"/>
</svg>
