<svg width="58" height="67" viewBox="0 0 58 67" fill="none" xmlns="http://www.w3.org/2000/svg">
<rect width="32.4025" height="32.4025" transform="matrix(0.866025 0.5 -0.866025 0.5 29.0614 1)" stroke="white" stroke-linejoin="bevel"/>
<rect width="32.4025" height="32.4025" transform="matrix(0.866025 0.5 0 1 1 17.2012)" stroke="white" stroke-linejoin="bevel"/>
<rect width="32.4025" height="32.4025" transform="matrix(0.866025 -0.5 0 1 29.0614 33.4025)" stroke="white" stroke-linejoin="bevel"/>
<line y1="-0.5" x2="32.0927" y2="-0.5" transform="matrix(0.866025 -0.5 0 1 29.2413 33.6326)" stroke="white"/>
<line y1="-0.5" x2="32.0927" y2="-0.5" transform="matrix(0.866025 -0.5 0 1 29.2414 37.6785)" stroke="white"/>
<line y1="-0.5" x2="32.0927" y2="-0.5" transform="matrix(0.866025 -0.5 0 1 29.2414 41.7244)" stroke="white"/>
<line y1="-0.5" x2="32.0927" y2="-0.5" transform="matrix(0.866025 -0.5 0 1 29.2414 45.7703)" stroke="white"/>
<line y1="-0.5" x2="32.0927" y2="-0.5" transform="matrix(0.866025 -0.5 0 1 29.2414 49.8163)" stroke="white"/>
<line y1="-0.5" x2="32.0927" y2="-0.5" transform="matrix(0.866025 -0.5 0 1 29.2414 53.8622)" stroke="white"/>
<line y1="-0.5" x2="32.0927" y2="-0.5" transform="matrix(0.866025 -0.5 0 1 29.2414 61.954)" stroke="white"/>
<line y1="-0.5" x2="32.0927" y2="-0.5" transform="matrix(0.866025 -0.5 0 1 29.2414 65.9999)" stroke="white"/>
<line y1="-0.5" x2="32.0927" y2="-0.5" transform="matrix(0.866025 -0.5 0 1 29.2414 57.9081)" stroke="white"/>
</svg>
