<svg width="27" height="26" viewBox="0 0 27 26" fill="none" xmlns="http://www.w3.org/2000/svg">
<g clip-path="url(#clip0_1128_1774)">
<path fill-rule="evenodd" clip-rule="evenodd" d="M13.8289 0C6.63426 0 0.818115 5.85902 0.818115 13.1074C0.818115 18.9015 4.54472 23.806 9.71451 25.5419C10.3609 25.6724 10.5976 25.2598 10.5976 24.9128C10.5976 24.609 10.5763 23.5674 10.5763 22.4821C6.95704 23.2635 6.20336 20.9196 6.20336 20.9196C5.62171 19.4006 4.7599 19.0101 4.7599 19.0101C3.57532 18.2072 4.84619 18.2072 4.84619 18.2072C6.16021 18.294 6.84971 19.5526 6.84971 19.5526C8.01273 21.5489 9.88681 20.9849 10.6408 20.6376C10.7484 19.7912 11.0932 19.2053 11.4594 18.8799C8.5728 18.576 5.53569 17.4476 5.53569 12.4129C5.53569 10.9806 6.05235 9.8088 6.87102 8.89746C6.74185 8.57201 6.28938 7.2263 7.00045 5.42519C7.00045 5.42519 8.09901 5.07791 10.576 6.77063C11.6366 6.48372 12.7302 6.33776 13.8289 6.33653C14.9274 6.33653 16.0473 6.4886 17.0814 6.77063C19.5587 5.07791 20.6573 5.42519 20.6573 5.42519C21.3684 7.2263 20.9156 8.57201 20.7865 8.89746C21.6267 9.8088 22.1221 10.9806 22.1221 12.4129C22.1221 17.4476 19.0849 18.5542 16.1767 18.8799C16.6508 19.2922 17.0599 20.0733 17.0599 21.3103C17.0599 23.068 17.0385 24.4787 17.0385 24.9126C17.0385 25.2598 17.2756 25.6724 17.9217 25.5421C23.0915 23.8057 26.8181 18.9015 26.8181 13.1074C26.8394 5.85902 21.0019 0 13.8289 0Z" fill="white"/>
</g>
<defs>
<clipPath id="clip0_1128_1774">
<rect width="26" height="26" fill="white" transform="translate(0.818115)"/>
</clipPath>
</defs>
</svg>
