<svg width="27" height="26" viewBox="0 0 27 26" fill="none" xmlns="http://www.w3.org/2000/svg">
<g clip-path="url(#clip0_1128_1772)">
<path d="M24.8935 0H2.73765C1.67632 0 0.818115 0.837891 0.818115 1.87383V24.1211C0.818115 25.157 1.67632 26 2.73765 26H24.8935C25.9548 26 26.8181 25.157 26.8181 24.1262V1.87383C26.8181 0.837891 25.9548 0 24.8935 0ZM8.53179 22.1559H4.67241V9.74492H8.53179V22.1559ZM6.6021 8.05391C5.36304 8.05391 4.36265 7.05352 4.36265 5.81953C4.36265 4.58555 5.36304 3.58516 6.6021 3.58516C7.83608 3.58516 8.83647 4.58555 8.83647 5.81953C8.83647 7.04844 7.83608 8.05391 6.6021 8.05391ZM22.974 22.1559H19.1197V16.123C19.1197 14.6859 19.0943 12.8324 17.1138 12.8324C15.108 12.8324 14.8033 14.4016 14.8033 16.0215V22.1559H10.9541V9.74492H14.6509V11.441H14.7017C15.2146 10.466 16.474 9.43516 18.3478 9.43516C22.2529 9.43516 22.974 12.0047 22.974 15.3461V22.1559V22.1559Z" fill="white"/>
</g>
<defs>
<clipPath id="clip0_1128_1772">
<rect width="26" height="26" fill="white" transform="translate(0.818115)"/>
</clipPath>
</defs>
</svg>
