<svg width="556" height="820" viewBox="0 0 556 820" fill="none" xmlns="http://www.w3.org/2000/svg">
<circle cx="278" cy="278" r="266" stroke="#F8F8F8" stroke-width="8"/>
<circle cx="278" cy="404" r="266" stroke="#F8F8F8" stroke-width="8"/>
<circle cx="278" cy="542" r="266" stroke="#F8F8F8" stroke-width="8"/>
<g filter="url(#filter0_f_1170_181)">
<mask id="path-4-inside-1_1170_181" fill="white">
<path d="M278 548C313.457 548 348.567 541.016 381.324 527.447C414.082 513.879 443.847 493.991 468.919 468.919C493.991 443.847 513.879 414.082 527.447 381.325C541.016 348.567 548 313.457 548 278C548 242.543 541.016 207.433 527.447 174.675C513.879 141.918 493.991 112.153 468.919 87.0811C443.847 62.0093 414.082 42.1213 381.325 28.5525C348.567 14.9837 313.457 7.99997 278 7.99997L278 278L278 548Z"/>
</mask>
<path d="M278 548C313.457 548 348.567 541.016 381.324 527.447C414.082 513.879 443.847 493.991 468.919 468.919C493.991 443.847 513.879 414.082 527.447 381.325C541.016 348.567 548 313.457 548 278C548 242.543 541.016 207.433 527.447 174.675C513.879 141.918 493.991 112.153 468.919 87.0811C443.847 62.0093 414.082 42.1213 381.325 28.5525C348.567 14.9837 313.457 7.99997 278 7.99997L278 278L278 548Z" stroke="#1A1817" stroke-width="24" mask="url(#path-4-inside-1_1170_181)"/>
<mask id="path-5-outside-2_1170_181" maskUnits="userSpaceOnUse" x="274" y="3.99997" width="278" height="548" fill="black">
<rect fill="white" x="274" y="3.99997" width="278" height="548"/>
<path d="M278 548C313.457 548 348.567 541.016 381.324 527.447C414.082 513.879 443.847 493.991 468.919 468.919C493.991 443.847 513.879 414.082 527.447 381.325C541.016 348.567 548 313.457 548 278C548 242.543 541.016 207.433 527.447 174.675C513.879 141.918 493.991 112.153 468.919 87.0811C443.847 62.0093 414.082 42.1213 381.325 28.5525C348.567 14.9837 313.457 7.99997 278 7.99997L278 278L278 548Z"/>
</mask>
<path d="M278 548C313.457 548 348.567 541.016 381.324 527.447C414.082 513.879 443.847 493.991 468.919 468.919C493.991 443.847 513.879 414.082 527.447 381.325C541.016 348.567 548 313.457 548 278C548 242.543 541.016 207.433 527.447 174.675C513.879 141.918 493.991 112.153 468.919 87.0811C443.847 62.0093 414.082 42.1213 381.325 28.5525C348.567 14.9837 313.457 7.99997 278 7.99997L278 278L278 548Z" stroke="#1A1817" stroke-width="8" mask="url(#path-5-outside-2_1170_181)"/>
<mask id="path-6-inside-3_1170_181" fill="white">
<path d="M278 548C313.457 548 348.567 541.016 381.324 527.447C414.082 513.879 443.847 493.991 468.919 468.919C493.991 443.847 513.879 414.082 527.447 381.325C541.016 348.567 548 313.457 548 278C548 242.543 541.016 207.433 527.447 174.675C513.879 141.918 493.991 112.153 468.919 87.0811C443.847 62.0093 414.082 42.1213 381.325 28.5525C348.567 14.9837 313.457 7.99997 278 7.99997L278 278L278 548Z"/>
</mask>
<path d="M278 548C313.457 548 348.567 541.016 381.324 527.447C414.082 513.879 443.847 493.991 468.919 468.919C493.991 443.847 513.879 414.082 527.447 381.325C541.016 348.567 548 313.457 548 278C548 242.543 541.016 207.433 527.447 174.675C513.879 141.918 493.991 112.153 468.919 87.0811C443.847 62.0093 414.082 42.1213 381.325 28.5525C348.567 14.9837 313.457 7.99997 278 7.99997L278 278L278 548Z" stroke="#33FF43" stroke-width="16" mask="url(#path-6-inside-3_1170_181)"/>
<mask id="path-7-inside-4_1170_181" fill="white">
<path d="M8.00002 542C8.00002 577.457 14.9838 612.567 28.5525 645.324C42.1213 678.082 62.0094 707.847 87.0812 732.919C112.153 757.991 141.918 777.879 174.675 791.447C207.433 805.016 242.543 812 278 812C313.457 812 348.567 805.016 381.325 791.447C414.082 777.879 443.847 757.991 468.919 732.919C493.991 707.847 513.879 678.082 527.447 645.325C541.016 612.567 548 577.457 548 542L278 542L8.00002 542Z"/>
</mask>
<path d="M8.00002 542C8.00002 577.457 14.9838 612.567 28.5525 645.324C42.1213 678.082 62.0094 707.847 87.0812 732.919C112.153 757.991 141.918 777.879 174.675 791.447C207.433 805.016 242.543 812 278 812C313.457 812 348.567 805.016 381.325 791.447C414.082 777.879 443.847 757.991 468.919 732.919C493.991 707.847 513.879 678.082 527.447 645.325C541.016 612.567 548 577.457 548 542L278 542L8.00002 542Z" stroke="#1A1817" stroke-width="24" mask="url(#path-7-inside-4_1170_181)"/>
<mask id="path-8-outside-5_1170_181" maskUnits="userSpaceOnUse" x="4" y="538" width="548" height="278" fill="black">
<rect fill="white" x="4" y="538" width="548" height="278"/>
<path d="M8.00002 542C8.00002 577.457 14.9838 612.567 28.5525 645.324C42.1213 678.082 62.0094 707.847 87.0812 732.919C112.153 757.991 141.918 777.879 174.675 791.447C207.433 805.016 242.543 812 278 812C313.457 812 348.567 805.016 381.325 791.447C414.082 777.879 443.847 757.991 468.919 732.919C493.991 707.847 513.879 678.082 527.447 645.325C541.016 612.567 548 577.457 548 542L278 542L8.00002 542Z"/>
</mask>
<path d="M8.00002 542C8.00002 577.457 14.9838 612.567 28.5525 645.324C42.1213 678.082 62.0094 707.847 87.0812 732.919C112.153 757.991 141.918 777.879 174.675 791.447C207.433 805.016 242.543 812 278 812C313.457 812 348.567 805.016 381.325 791.447C414.082 777.879 443.847 757.991 468.919 732.919C493.991 707.847 513.879 678.082 527.447 645.325C541.016 612.567 548 577.457 548 542L278 542L8.00002 542Z" stroke="#1A1817" stroke-width="8" mask="url(#path-8-outside-5_1170_181)"/>
<mask id="path-9-inside-6_1170_181" fill="white">
<path d="M8.00002 542C8.00002 577.457 14.9838 612.567 28.5525 645.324C42.1213 678.082 62.0094 707.847 87.0812 732.919C112.153 757.991 141.918 777.879 174.675 791.447C207.433 805.016 242.543 812 278 812C313.457 812 348.567 805.016 381.325 791.447C414.082 777.879 443.847 757.991 468.919 732.919C493.991 707.847 513.879 678.082 527.447 645.325C541.016 612.567 548 577.457 548 542L278 542L8.00002 542Z"/>
</mask>
<path d="M8.00002 542C8.00002 577.457 14.9838 612.567 28.5525 645.324C42.1213 678.082 62.0094 707.847 87.0812 732.919C112.153 757.991 141.918 777.879 174.675 791.447C207.433 805.016 242.543 812 278 812C313.457 812 348.567 805.016 381.325 791.447C414.082 777.879 443.847 757.991 468.919 732.919C493.991 707.847 513.879 678.082 527.447 645.325C541.016 612.567 548 577.457 548 542L278 542L8.00002 542Z" stroke="#33FF43" stroke-width="16" mask="url(#path-9-inside-6_1170_181)"/>
</g>
<mask id="path-10-inside-7_1170_181" fill="white">
<path d="M278 548C313.457 548 348.567 541.016 381.324 527.447C414.082 513.879 443.847 493.991 468.919 468.919C493.991 443.847 513.879 414.082 527.447 381.325C541.016 348.567 548 313.457 548 278C548 242.543 541.016 207.433 527.447 174.675C513.879 141.918 493.991 112.153 468.919 87.0811C443.847 62.0093 414.082 42.1213 381.325 28.5525C348.567 14.9837 313.457 7.99997 278 7.99997L278 278L278 548Z"/>
</mask>
<path d="M278 548C313.457 548 348.567 541.016 381.324 527.447C414.082 513.879 443.847 493.991 468.919 468.919C493.991 443.847 513.879 414.082 527.447 381.325C541.016 348.567 548 313.457 548 278C548 242.543 541.016 207.433 527.447 174.675C513.879 141.918 493.991 112.153 468.919 87.0811C443.847 62.0093 414.082 42.1213 381.325 28.5525C348.567 14.9837 313.457 7.99997 278 7.99997L278 278L278 548Z" stroke="#1A1817" stroke-width="24" mask="url(#path-10-inside-7_1170_181)"/>
<mask id="path-11-outside-8_1170_181" maskUnits="userSpaceOnUse" x="274" y="3.99997" width="278" height="548" fill="black">
<rect fill="white" x="274" y="3.99997" width="278" height="548"/>
<path d="M278 548C313.457 548 348.567 541.016 381.324 527.447C414.082 513.879 443.847 493.991 468.919 468.919C493.991 443.847 513.879 414.082 527.447 381.325C541.016 348.567 548 313.457 548 278C548 242.543 541.016 207.433 527.447 174.675C513.879 141.918 493.991 112.153 468.919 87.0811C443.847 62.0093 414.082 42.1213 381.325 28.5525C348.567 14.9837 313.457 7.99997 278 7.99997L278 278L278 548Z"/>
</mask>
<path d="M278 548C313.457 548 348.567 541.016 381.324 527.447C414.082 513.879 443.847 493.991 468.919 468.919C493.991 443.847 513.879 414.082 527.447 381.325C541.016 348.567 548 313.457 548 278C548 242.543 541.016 207.433 527.447 174.675C513.879 141.918 493.991 112.153 468.919 87.0811C443.847 62.0093 414.082 42.1213 381.325 28.5525C348.567 14.9837 313.457 7.99997 278 7.99997L278 278L278 548Z" stroke="#1A1817" stroke-width="8" mask="url(#path-11-outside-8_1170_181)"/>
<mask id="path-12-inside-9_1170_181" fill="white">
<path d="M278 548C313.457 548 348.567 541.016 381.324 527.447C414.082 513.879 443.847 493.991 468.919 468.919C493.991 443.847 513.879 414.082 527.447 381.325C541.016 348.567 548 313.457 548 278C548 242.543 541.016 207.433 527.447 174.675C513.879 141.918 493.991 112.153 468.919 87.0811C443.847 62.0093 414.082 42.1213 381.325 28.5525C348.567 14.9837 313.457 7.99997 278 7.99997L278 278L278 548Z"/>
</mask>
<path d="M278 548C313.457 548 348.567 541.016 381.324 527.447C414.082 513.879 443.847 493.991 468.919 468.919C493.991 443.847 513.879 414.082 527.447 381.325C541.016 348.567 548 313.457 548 278C548 242.543 541.016 207.433 527.447 174.675C513.879 141.918 493.991 112.153 468.919 87.0811C443.847 62.0093 414.082 42.1213 381.325 28.5525C348.567 14.9837 313.457 7.99997 278 7.99997L278 278L278 548Z" stroke="#33FF43" stroke-width="16" mask="url(#path-12-inside-9_1170_181)"/>
<mask id="path-13-inside-10_1170_181" fill="white">
<path d="M8.00002 542C8.00002 577.457 14.9838 612.567 28.5525 645.324C42.1213 678.082 62.0094 707.847 87.0812 732.919C112.153 757.991 141.918 777.879 174.675 791.447C207.433 805.016 242.543 812 278 812C313.457 812 348.567 805.016 381.325 791.447C414.082 777.879 443.847 757.991 468.919 732.919C493.991 707.847 513.879 678.082 527.447 645.325C541.016 612.567 548 577.457 548 542L278 542L8.00002 542Z"/>
</mask>
<path d="M8.00002 542C8.00002 577.457 14.9838 612.567 28.5525 645.324C42.1213 678.082 62.0094 707.847 87.0812 732.919C112.153 757.991 141.918 777.879 174.675 791.447C207.433 805.016 242.543 812 278 812C313.457 812 348.567 805.016 381.325 791.447C414.082 777.879 443.847 757.991 468.919 732.919C493.991 707.847 513.879 678.082 527.447 645.325C541.016 612.567 548 577.457 548 542L278 542L8.00002 542Z" stroke="#1A1817" stroke-width="24" mask="url(#path-13-inside-10_1170_181)"/>
<mask id="path-14-outside-11_1170_181" maskUnits="userSpaceOnUse" x="4" y="538" width="548" height="278" fill="black">
<rect fill="white" x="4" y="538" width="548" height="278"/>
<path d="M8.00002 542C8.00002 577.457 14.9838 612.567 28.5525 645.324C42.1213 678.082 62.0094 707.847 87.0812 732.919C112.153 757.991 141.918 777.879 174.675 791.447C207.433 805.016 242.543 812 278 812C313.457 812 348.567 805.016 381.325 791.447C414.082 777.879 443.847 757.991 468.919 732.919C493.991 707.847 513.879 678.082 527.447 645.325C541.016 612.567 548 577.457 548 542L278 542L8.00002 542Z"/>
</mask>
<path d="M8.00002 542C8.00002 577.457 14.9838 612.567 28.5525 645.324C42.1213 678.082 62.0094 707.847 87.0812 732.919C112.153 757.991 141.918 777.879 174.675 791.447C207.433 805.016 242.543 812 278 812C313.457 812 348.567 805.016 381.325 791.447C414.082 777.879 443.847 757.991 468.919 732.919C493.991 707.847 513.879 678.082 527.447 645.325C541.016 612.567 548 577.457 548 542L278 542L8.00002 542Z" stroke="#1A1817" stroke-width="8" mask="url(#path-14-outside-11_1170_181)"/>
<mask id="path-15-inside-12_1170_181" fill="white">
<path d="M8.00002 542C8.00002 577.457 14.9838 612.567 28.5525 645.324C42.1213 678.082 62.0094 707.847 87.0812 732.919C112.153 757.991 141.918 777.879 174.675 791.447C207.433 805.016 242.543 812 278 812C313.457 812 348.567 805.016 381.325 791.447C414.082 777.879 443.847 757.991 468.919 732.919C493.991 707.847 513.879 678.082 527.447 645.325C541.016 612.567 548 577.457 548 542L278 542L8.00002 542Z"/>
</mask>
<path d="M8.00002 542C8.00002 577.457 14.9838 612.567 28.5525 645.324C42.1213 678.082 62.0094 707.847 87.0812 732.919C112.153 757.991 141.918 777.879 174.675 791.447C207.433 805.016 242.543 812 278 812C313.457 812 348.567 805.016 381.325 791.447C414.082 777.879 443.847 757.991 468.919 732.919C493.991 707.847 513.879 678.082 527.447 645.325C541.016 612.567 548 577.457 548 542L278 542L8.00002 542Z" stroke="#33FF43" stroke-width="16" mask="url(#path-15-inside-12_1170_181)"/>
<defs>
<filter id="filter0_f_1170_181" x="0" y="0" width="556" height="820" filterUnits="userSpaceOnUse" color-interpolation-filters="sRGB">
<feFlood flood-opacity="0" result="BackgroundImageFix"/>
<feBlend mode="normal" in="SourceGraphic" in2="BackgroundImageFix" result="shape"/>
<feGaussianBlur stdDeviation="2" result="effect1_foregroundBlur_1170_181"/>
</filter>
</defs>
</svg>
