<svg width="27" height="26" viewBox="0 0 27 26" fill="none" xmlns="http://www.w3.org/2000/svg">
<path d="M19.9847 12.0505C19.8727 11.9968 19.7589 11.9452 19.6437 11.8957C19.443 8.19788 17.4224 6.08089 14.0297 6.05922C14.0143 6.05912 13.999 6.05912 13.9837 6.05912C11.9544 6.05912 10.2666 6.92533 9.22784 8.50155L11.0937 9.78153C11.8698 8.60415 13.0877 8.35315 13.9846 8.35315C13.9949 8.35315 14.0053 8.35315 14.0156 8.35325C15.1327 8.36037 15.9757 8.68517 16.5212 9.31856C16.9183 9.7797 17.1838 10.4169 17.3153 11.2211C16.3249 11.0528 15.2537 11.001 14.1087 11.0667C10.883 11.2525 8.80928 13.1338 8.94856 15.7479C9.01923 17.0739 9.67982 18.2146 10.8086 18.9598C11.7629 19.5898 12.992 19.8979 14.2694 19.8281C15.9564 19.7356 17.2799 19.092 18.2031 17.9151C18.9043 17.0213 19.3478 15.8631 19.5436 14.4037C20.3476 14.8889 20.9434 15.5274 21.2725 16.295C21.832 17.5997 21.8647 19.7437 20.1152 21.4917C18.5824 23.023 16.7399 23.6855 13.9554 23.7059C10.8667 23.683 8.53069 22.6924 7.0119 20.7617C5.58967 18.9537 4.85466 16.3424 4.82723 13C4.85466 9.65762 5.58967 7.04622 7.0119 5.23828C8.53069 3.30754 10.8666 2.31698 13.9554 2.29403C17.0666 2.31716 19.4433 3.31248 21.0202 5.25254C21.7934 6.20392 22.3764 7.40036 22.7607 8.79535L24.9473 8.21196C24.4814 6.49488 23.7484 5.01525 22.751 3.78815C20.7293 1.3009 17.7726 0.0264263 13.963 0H13.9478C10.1459 0.0263345 7.22234 1.30566 5.25828 3.80241C3.51054 6.0242 2.609 9.11567 2.57871 12.9909L2.57861 13L2.57871 13.0091C2.609 16.8843 3.51054 19.9759 5.25828 22.1976C7.22234 24.6943 10.1459 25.9737 13.9478 26H13.963C17.3431 25.9766 19.7256 25.0916 21.6883 23.1307C24.2562 20.5652 24.1789 17.3494 23.3326 15.3753C22.7254 13.9597 21.5677 12.8099 19.9847 12.0505ZM14.1487 17.5374C12.7349 17.617 11.2662 16.9825 11.1938 15.6233C11.1401 14.6155 11.911 13.491 14.2354 13.3571C14.5016 13.3417 14.7629 13.3342 15.0195 13.3342C15.8638 13.3342 16.6537 13.4162 17.3718 13.5732C17.1039 16.9183 15.5328 17.4614 14.1487 17.5374Z" fill="white"/>
</svg>
